<svg width="16" height="16" viewBox="0 0 16 16" fill="none" xmlns="http://www.w3.org/2000/svg">
<path fill-rule="evenodd" clip-rule="evenodd" d="M8 3.29288L14 9.29288V13.5C14 14.3284 13.3284 15 12.5 15H3.5C2.67157 15 2 14.3284 2 13.5V9.29288L8 3.29288Z" fill="#855032"/>
<path fill-rule="evenodd" clip-rule="evenodd" d="M13 2.49999V5.99999L11 3.99999V2.49999C11 2.22384 11.2239 1.99999 11.5 1.99999H12.5C12.7761 1.99999 13 2.22384 13 2.49999Z" fill="#855032"/>
<path fill-rule="evenodd" clip-rule="evenodd" d="M7.29289 1.49999C7.68342 1.10946 8.31658 1.10946 8.70711 1.49999L15.3536 8.14643C15.5488 8.34169 15.5488 8.65828 15.3536 8.85354C15.1583 9.0488 14.8417 9.0488 14.6464 8.85354L8 2.20709L1.35355 8.85354C1.15829 9.0488 0.841709 9.0488 0.646447 8.85354C0.451184 8.65828 0.451184 8.34169 0.646447 8.14643L7.29289 1.49999Z" fill="#855032"/>
<path d="M8 3.29288L8.35355 2.93933L8 2.58577L7.64645 2.93933L8 3.29288ZM14 9.29288H14.5V9.08577L14.3536 8.93933L14 9.29288ZM2 9.29288L1.64645 8.93933L1.5 9.08577V9.29288H2ZM13 5.99999L12.6464 6.35354L13.5 7.20709V5.99999H13ZM11 3.99999H10.5V4.20709L10.6464 4.35354L11 3.99999ZM8.70711 1.49999L8.35355 1.85354L8.35355 1.85354L8.70711 1.49999ZM7.29289 1.49999L7.64645 1.85354L7.64645 1.85354L7.29289 1.49999ZM15.3536 8.14643L15.7071 7.79288L15.7071 7.79288L15.3536 8.14643ZM15.3536 8.85354L15.7071 9.20709L15.7071 9.20709L15.3536 8.85354ZM14.6464 8.85354L14.2929 9.20709L14.2929 9.20709L14.6464 8.85354ZM8 2.20709L8.35355 1.85354L8 1.49999L7.64645 1.85354L8 2.20709ZM1.35355 8.85354L1 8.49999L1 8.49999L1.35355 8.85354ZM0.646447 8.85354L1 8.49999L1 8.49999L0.646447 8.85354ZM0.646447 8.14643L1 8.49999L1 8.49999L0.646447 8.14643ZM12.5 15.5C13.6046 15.5 14.5 14.6046 14.5 13.5H13.5C13.5 14.0523 13.0523 14.5 12.5 14.5V15.5ZM3.5 15.5H12.5V14.5H3.5V15.5ZM1.5 13.5C1.5 14.6046 2.39543 15.5 3.5 15.5V14.5C2.94772 14.5 2.5 14.0523 2.5 13.5H1.5ZM14.3536 8.93933L8.35355 2.93933L7.64645 3.64643L13.6464 9.64643L14.3536 8.93933ZM14.5 13.5V9.29288H13.5V13.5H14.5ZM1.5 9.29288V13.5H2.5V9.29288H1.5ZM7.64645 2.93933L1.64645 8.93933L2.35355 9.64643L8.35355 3.64643L7.64645 2.93933ZM12.5 2.49999V5.99999H13.5V2.49999H12.5ZM13.3536 5.64643L11.3536 3.64643L10.6464 4.35354L12.6464 6.35354L13.3536 5.64643ZM11.5 3.99999V2.49999H10.5V3.99999H11.5ZM11.5 2.49999V1.49999C10.9477 1.49999 10.5 1.9477 10.5 2.49999H11.5ZM11.5 2.49999H12.5V1.49999H11.5V2.49999ZM12.5 2.49999H13.5C13.5 1.9477 13.0523 1.49999 12.5 1.49999V2.49999ZM9.06066 1.14643C8.47488 0.560647 7.52513 0.560644 6.93934 1.14643L7.64645 1.85354C7.84171 1.65828 8.15829 1.65828 8.35355 1.85354L9.06066 1.14643ZM15.7071 7.79288L9.06066 1.14643L8.35355 1.85354L15 8.49999L15.7071 7.79288ZM15.7071 9.20709C16.0976 8.81657 16.0976 8.1834 15.7071 7.79288L15 8.49999V8.49999L15.7071 9.20709ZM14.2929 9.20709C14.6834 9.59762 15.3166 9.59762 15.7071 9.20709L15 8.49999H15L14.2929 9.20709ZM7.64645 2.56065L14.2929 9.20709L15 8.49999L8.35355 1.85354L7.64645 2.56065ZM1.70711 9.20709L8.35355 2.56065L7.64645 1.85354L1 8.49999L1.70711 9.20709ZM0.292893 9.20709C0.683417 9.59762 1.31658 9.59762 1.70711 9.20709L1 8.49999H1L0.292893 9.20709ZM0.292893 7.79288C-0.0976311 8.1834 -0.0976311 8.81657 0.292893 9.20709L1 8.49999V8.49999L0.292893 7.79288ZM6.93934 1.14643L0.292893 7.79288L1 8.49999L7.64645 1.85354L6.93934 1.14643Z" fill="#301616"/>
</svg>
